# xmcd CD database file
#
# Track frame offsets:
#	150
#	14124
#	36079
#	48758
#	61820
#	77680
#	96117
#	113214
#	126608
#	149320
#	163245
#	182367
#	197324
#	214793
#
# Disc length: 3086 seconds
#
# Revision: 4
# Processed by: cddbd v1.5.2PL0 Copyright (c) Steve Scherf et al.
# Submitted via: CDex 1.70beta2
#
DISCID=bf0c0c0e
DTITLE=Carpenters - Yesterday Once More Disc 02
DYEAR=1986
DGENRE=Pop
TTITLE0=見つめあう恋
TTITLE1=マスカレード
TTITLE2=ハーティング・イーチ・アザー
TTITLE3=プリーズ・ミスター・ポストマン
TTITLE4=青春の輝き
TTITLE5=遠い初恋
TTITLE6=ふたりのラヴ・ソング
TTITLE7=トップ・オブ・ザ・ワールド
TTITLE8=ウェディング・ソング
TTITLE9=愛のプレリュード
TTITLE10=遠い想い出
TTITLE11=シング
TTITLE12=オンリー・イエスタデイ
TTITLE13=遥かなる影
EXTD=0\n\n\n YEAR: 1986
EXTT0=
EXTT1=
EXTT2=
EXTT3=
EXTT4=
EXTT5=
EXTT6=
EXTT7=
EXTT8=
EXTT9=
EXTT10=
EXTT11=
EXTT12=
EXTT13=
PLAYORDER=
